<svg width="68" height="68" viewBox="0 0 68 68" fill="none" xmlns="http://www.w3.org/2000/svg">
<path d="M61.5411 52.0872L59.3409 43.8767V43.8764L50.541 11.0351C50.2847 10.0831 49.6613 9.2716 48.8075 8.77862C47.9537 8.28564 46.9392 8.15142 45.9866 8.4054L37.7761 10.6056C37.5703 10.6618 37.3696 10.7355 37.1763 10.8258C36.8459 10.2788 36.3799 9.82627 35.8235 9.51191C35.2671 9.19756 34.6391 9.03199 34 9.03121H25.5C24.7395 9.03092 23.9974 9.26533 23.375 9.70245C22.7526 9.26533 22.0105 9.03092 21.25 9.03121H12.75C11.7641 9.03234 10.8188 9.42449 10.1217 10.1217C9.42453 10.8188 9.03237 11.764 9.03125 12.75V55.25C9.03237 56.2359 9.42453 57.1811 10.1217 57.8783C10.8188 58.5754 11.7641 58.9676 12.75 58.9687H21.25C22.0105 58.969 22.7526 58.7346 23.375 58.2975C23.9974 58.7346 24.7395 58.969 25.5 58.9687H34C34.9859 58.9676 35.9312 58.5754 36.6283 57.8783C37.3255 57.1811 37.7176 56.2359 37.7188 55.25V24.7594L46.1465 56.2121C46.2727 56.6839 46.4906 57.1263 46.7878 57.5138C47.085 57.9014 47.4557 58.2266 47.8787 58.4708C48.3017 58.715 48.7686 58.8735 49.2529 58.9371C49.7371 59.0008 50.2292 58.9684 50.7009 58.8418L58.9114 56.6416C59.8634 56.3853 60.6749 55.7619 61.1678 54.9081C61.6608 54.0543 61.795 53.0398 61.5411 52.0872ZM40.8383 24.085L50.0748 21.6102L55.8495 43.1622L46.6129 45.637L40.8383 24.085ZM38.2784 13.932C38.3132 13.8715 38.3597 13.8185 38.4151 13.7761C38.4705 13.7336 38.5337 13.7026 38.6012 13.6847L46.8116 11.4845C46.8564 11.4725 46.9026 11.4664 46.949 11.4665C47.0658 11.4666 47.1794 11.5051 47.2722 11.5763C47.3649 11.6474 47.4317 11.747 47.4621 11.8599L49.2498 18.531L40.013 21.0059L38.2253 14.3352C38.2071 14.2678 38.2025 14.1975 38.2116 14.1283C38.2207 14.0591 38.2434 13.9924 38.2784 13.932ZM25.5 12.2187H34C34.1408 12.2189 34.2758 12.275 34.3754 12.3745C34.475 12.4741 34.531 12.6091 34.5312 12.75V45.1562H24.9688V12.75C24.969 12.6091 25.025 12.4741 25.1246 12.3745C25.2242 12.275 25.3592 12.2189 25.5 12.2187ZM12.75 12.2187H21.25C21.3908 12.2189 21.5258 12.275 21.6254 12.3745C21.725 12.4741 21.781 12.6091 21.7812 12.75V19.6562H12.2188V12.75C12.219 12.6091 12.275 12.4741 12.3746 12.3745C12.4742 12.275 12.6092 12.2189 12.75 12.2187ZM21.25 55.7812H12.75C12.6092 55.781 12.4742 55.725 12.3746 55.6254C12.275 55.5258 12.219 55.3908 12.2188 55.25V22.8437H21.7812V55.25C21.781 55.3908 21.725 55.5258 21.6254 55.6254C21.5258 55.725 21.3908 55.781 21.25 55.7812ZM34 55.7812H25.5C25.3592 55.781 25.2242 55.725 25.1246 55.6254C25.025 55.5258 24.969 55.3908 24.9688 55.25V48.3437H34.5312V55.25C34.531 55.3908 34.475 55.5258 34.3754 55.6254C34.2758 55.725 34.1408 55.781 34 55.7812ZM58.0863 53.5625L49.8759 55.7626C49.8085 55.7807 49.7382 55.7853 49.669 55.7762C49.5998 55.7671 49.5331 55.7445 49.4727 55.7096C49.4123 55.6748 49.3593 55.6283 49.3168 55.573C49.2743 55.5176 49.2432 55.4544 49.2251 55.387L47.438 48.7161L56.6745 46.241L58.4619 52.9119C58.4984 53.048 58.4793 53.193 58.4088 53.3151C58.3384 53.4371 58.2224 53.5262 58.0863 53.5627V53.5625Z" fill="#4223FF"/>
</svg>
