<svg width="70" height="70" viewBox="0 0 70 70" fill="none" xmlns="http://www.w3.org/2000/svg">
<path d="M7 17.5C7 15.6435 7.7375 13.863 9.05025 12.5503C10.363 11.2375 12.1435 10.5 14 10.5H56C57.8565 10.5 59.637 11.2375 60.9497 12.5503C62.2625 13.863 63 15.6435 63 17.5V28.511C61.9451 27.5665 60.7679 26.7684 59.5 26.138V17.5C59.5 16.5717 59.1312 15.6815 58.4749 15.0251C57.8185 14.3687 56.9282 14 56 14H14C13.0717 14 12.1815 14.3687 11.5251 15.0251C10.8687 15.6815 10.5 16.5717 10.5 17.5V45.5C10.5 46.4283 10.8687 47.3185 11.5251 47.9749C12.1815 48.6312 13.0717 49 14 49H39.403C39.669 49.3955 39.9525 49.7805 40.25 50.1515V52.5H14C12.1435 52.5 10.363 51.7625 9.05025 50.4497C7.7375 49.137 7 47.3565 7 45.5V17.5Z" fill="#4223FF"/>
<path d="M64.75 40.2499C64.75 43.5889 63.4165 46.6129 61.25 48.8249V62.9999C61.25 63.3249 61.1595 63.6435 60.9886 63.92C60.8178 64.1964 60.5733 64.4198 60.2826 64.5652C59.9919 64.7105 59.6665 64.772 59.3428 64.7429C59.0192 64.7137 58.71 64.5949 58.45 64.3999L53.55 60.7249C53.2471 60.4977 52.8787 60.3749 52.5 60.3749C52.1214 60.3749 51.7529 60.4977 51.45 60.7249L46.55 64.3999C46.29 64.5949 45.9808 64.7137 45.6572 64.7429C45.3335 64.772 45.0081 64.7105 44.7174 64.5652C44.4267 64.4198 44.1822 64.1964 44.0114 63.92C43.8405 63.6435 43.75 63.3249 43.75 62.9999V48.8249C42.3439 47.3898 41.3123 45.6309 40.7463 43.7031C40.1802 41.7753 40.097 39.7379 40.5039 37.7704C40.9109 35.8029 41.7956 33.9657 43.08 32.4207C44.3643 30.8757 46.009 29.6703 47.8691 28.9108C49.7292 28.1512 51.7475 27.8609 53.7462 28.0653C55.745 28.2697 57.6628 28.9625 59.3306 30.0829C60.9984 31.2032 62.3651 32.7165 63.3102 34.4895C64.2552 36.2625 64.7497 38.2408 64.75 40.2499ZM52.5 52.4999C50.6205 52.4999 48.8425 52.0799 47.25 51.3204V58.6249L51.6005 56.0139C51.8723 55.8511 52.1832 55.7651 52.5 55.7651C52.8168 55.7651 53.1277 55.8511 53.3995 56.0139L57.75 58.6249V51.3204C56.1096 52.0994 54.316 52.5024 52.5 52.4999ZM52.5 48.9999C54.8206 48.9999 57.0462 48.0781 58.6872 46.4371C60.3281 44.7962 61.25 42.5706 61.25 40.2499C61.25 37.9293 60.3281 35.7037 58.6872 34.0627C57.0462 32.4218 54.8206 31.4999 52.5 31.4999C50.1794 31.4999 47.9538 32.4218 46.3128 34.0627C44.6719 35.7037 43.75 37.9293 43.75 40.2499C43.75 42.5706 44.6719 44.7962 46.3128 46.4371C47.9538 48.0781 50.1794 48.9999 52.5 48.9999Z" fill="#4223FF"/>
<path d="M17.5 22.75C17.5 22.2859 17.6844 21.8408 18.0126 21.5126C18.3408 21.1844 18.7859 21 19.25 21H50.75C51.2141 21 51.6592 21.1844 51.9874 21.5126C52.3156 21.8408 52.5 22.2859 52.5 22.75C52.5 23.2141 52.3156 23.6592 51.9874 23.9874C51.6592 24.3156 51.2141 24.5 50.75 24.5H19.25C18.7859 24.5 18.3408 24.3156 18.0126 23.9874C17.6844 23.6592 17.5 23.2141 17.5 22.75Z" fill="#4223FF"/>
<path d="M19.25 38.5C18.7859 38.5 18.3408 38.6844 18.0126 39.0126C17.6844 39.3407 17.5 39.7859 17.5 40.25C17.5 40.7141 17.6844 41.1592 18.0126 41.4874C18.3408 41.8156 18.7859 42 19.25 42H33.25C33.7141 42 34.1593 41.8156 34.4874 41.4874C34.8156 41.1592 35 40.7141 35 40.25C35 39.7859 34.8156 39.3407 34.4874 39.0126C34.1593 38.6844 33.7141 38.5 33.25 38.5H19.25Z" fill="#4223FF"/>
</svg>
