<svg width="342" height="254" viewBox="0 0 342 254" fill="none" xmlns="http://www.w3.org/2000/svg">
<path d="M20.6364 206.277C21.0571 221.984 23.6877 237.553 28.4507 252.526C28.5563 252.874 28.6735 253.216 28.7876 253.564H57.9466C57.916 253.252 57.8843 252.904 57.8537 252.526C55.9096 230.169 67.0165 95.7169 80.4191 72.4468C79.2449 74.3344 18.3755 135.237 20.6364 206.277Z" fill="#E6E6E6"/>
<path d="M22.8244 252.526C23.0683 252.874 23.3218 253.221 23.5815 253.564H45.4574C45.2916 253.268 45.0995 252.92 44.8766 252.526C41.2631 246.003 30.5669 226.497 20.6385 206.277C9.973 184.547 0.179755 161.993 1.00447 153.83C0.748885 155.67 -6.63457 211.795 22.8244 252.526Z" fill="#E6E6E6"/>
<path d="M116.375 173.862C116.306 174.118 116.257 174.379 116.229 174.643L95.1643 185.709L90.2733 182.628L84.6599 189.404L92.7886 195.7C93.4453 196.209 94.2492 196.491 95.0797 196.503C95.9101 196.516 96.7223 196.259 97.3943 195.771L119.294 179.857C120.238 180.249 121.28 180.346 122.28 180.132C123.28 179.918 124.191 179.405 124.893 178.661C125.594 177.916 126.053 176.976 126.207 175.965C126.361 174.953 126.204 173.919 125.756 173C125.308 172.08 124.591 171.318 123.7 170.816C122.809 170.314 121.786 170.096 120.768 170.189C119.749 170.283 118.783 170.684 117.999 171.34C117.214 171.996 116.648 172.876 116.375 173.862Z" fill="#9E616A"/>
<path d="M141.771 248.843L145.995 246.126L137.528 228.538L131.295 232.547L141.771 248.843Z" fill="#9E616A"/>
<path d="M139.807 248.156L148.125 242.806L148.125 242.805C149.531 241.901 151.238 241.593 152.871 241.947C154.505 242.302 155.93 243.292 156.834 244.698L156.945 244.87L143.327 253.631L139.807 248.156Z" fill="#2F2E41"/>
<path d="M80.9209 218.632L113.341 197.868C113.341 197.868 119.298 197.293 122.873 204.341L144.465 235.366L135.253 241.601L111.293 216.715L94.8521 232.98C94.8521 232.98 119.076 229.006 118.256 244.985C117.606 257.665 84.4529 253.316 70.7952 250.98C68.201 250.556 65.7319 249.567 63.563 248.082C61.3941 246.597 59.5786 244.652 58.2453 242.386C56.7805 239.845 55.9931 236.959 57.2234 234.232C60.5043 226.958 80.9209 218.632 80.9209 218.632Z" fill="#2F2E41"/>
<path d="M64.8488 235.984L55.5059 234.093L58.1683 188.224L68.9186 175.053L75.3235 173.918C77.2329 173.572 79.2027 173.956 80.8424 174.994C82.4822 176.031 83.6723 177.648 84.1768 179.522L86.9999 189.838C91.79 197.951 85.0797 207.358 84.4608 208.194L84.8095 222.421L64.8488 235.984Z" fill="#4223FF"/>
<path d="M73.5483 176.849L74.1411 174.751C74.1411 174.751 80.5743 170.009 90.4044 182.3L85.6941 190.699L75.4544 190.289L73.5483 176.849Z" fill="#4223FF"/>
<path d="M88.3471 160.526C90.1696 167.999 82.9858 168.554 74.4641 170.633C65.9424 172.713 59.3099 175.529 57.4874 168.055C55.665 160.582 55.809 146.512 67.8644 143.571C80.3351 140.528 86.5247 153.052 88.3471 160.526Z" fill="#2F2E41"/>
<path d="M71.8766 170.938C77.779 170.938 82.5639 166.152 82.5639 160.247C82.5639 154.343 77.779 149.557 71.8766 149.557C65.9742 149.557 61.1893 154.343 61.1893 160.247C61.1893 166.152 65.9742 170.938 71.8766 170.938Z" fill="#9E616A"/>
<path d="M59.6317 162.156L63.7384 161.154L64.3126 155.638L65.9123 160.623L67.8751 160.144L68.2101 156.927L69.1433 159.835L83.7277 156.276C83.0166 153.361 81.1767 150.847 78.6126 149.288C76.0486 147.729 72.9705 147.253 70.0554 147.964L67.9417 148.48C66.4984 148.832 65.1385 149.465 63.9397 150.343C62.7409 151.221 61.7268 152.326 60.9551 153.596C60.1835 154.866 59.6694 156.276 59.4424 157.744C59.2153 159.213 59.2796 160.712 59.6317 162.156Z" fill="#2F2E41"/>
<path d="M90.1796 213.112C89.9227 213.179 89.6716 213.266 89.4284 213.372L69.3782 200.559L69.6285 194.783L60.9628 193.266L59.5262 203.448C59.4101 204.271 59.564 205.109 59.9646 205.837C60.3653 206.565 60.9911 207.143 61.7482 207.484L86.4218 218.62C86.5488 219.635 86.9817 220.587 87.663 221.35C88.3443 222.113 89.2417 222.65 90.2357 222.891C91.2298 223.131 92.2734 223.063 93.2278 222.696C94.1823 222.328 95.0022 221.679 95.5787 220.834C96.1551 219.989 96.4608 218.988 96.4549 217.965C96.449 216.942 96.132 215.945 95.5458 215.107C94.9597 214.269 94.1324 213.629 93.1738 213.272C92.2152 212.916 91.1708 212.86 90.1796 213.112Z" fill="#9E616A"/>
<path d="M70.5402 177.146L69.0292 175.241C69.0292 175.241 62.9619 173.286 59.6852 181.48C56.4085 189.674 59.4804 197.664 59.4804 197.664L73.816 198.893L74.84 185.577L70.5402 177.146Z" fill="#4223FF"/>
<path d="M230.055 57.0339H342V93.7941H337.76V103.408L328.148 93.7941H230.055V57.0339Z" fill="#E6E6E6"/>
<path d="M338.89 60.6135H233.164V90.0217H338.89V60.6135Z" fill="white"/>
<path d="M292.571 69.1995H241.666V70.7447H292.571V69.1995Z" fill="#4223FF"/>
<path d="M330.388 74.5449H241.666V76.0902H330.388V74.5449Z" fill="#E6E6E6"/>
<path d="M330.301 79.8904H241.666V81.4356H330.301V79.8904Z" fill="#E6E6E6"/>
<path d="M275.091 0H163.146V36.7602H167.386V46.3746L176.997 36.7602H275.091V0Z" fill="#E6E6E6"/>
<path d="M271.981 3.57983H166.255V32.988H271.981V3.57983Z" fill="white"/>
<path d="M226.51 12.4485H175.605V13.9937H226.51V12.4485Z" fill="#4223FF"/>
<path d="M264.327 17.7939H175.605V19.3392H264.327V17.7939Z" fill="#E6E6E6"/>
<path d="M264.241 23.1396H175.605V24.6849H264.241V23.1396Z" fill="#E6E6E6"/>
<path d="M136.504 165.687H136.305V160.256C136.305 159.844 136.224 159.435 136.066 159.054C135.908 158.672 135.677 158.326 135.385 158.034C135.093 157.742 134.747 157.51 134.366 157.353C133.985 157.195 133.576 157.113 133.163 157.113H121.661C121.249 157.113 120.84 157.195 120.459 157.353C120.078 157.51 119.731 157.742 119.439 158.034C119.148 158.326 118.916 158.672 118.758 159.054C118.6 159.435 118.519 159.844 118.519 160.256V190.049C118.519 190.461 118.6 190.87 118.758 191.251C118.916 191.633 119.148 191.979 119.439 192.271C119.731 192.563 120.078 192.795 120.459 192.952C120.84 193.11 121.249 193.192 121.661 193.192H133.163C133.576 193.192 133.984 193.11 134.366 192.952C134.747 192.795 135.093 192.563 135.385 192.271C135.677 191.979 135.908 191.633 136.066 191.251C136.224 190.87 136.305 190.461 136.305 190.049V169.552H136.504V165.687Z" fill="#3F3D56"/>
<path d="M133.29 157.931H131.789C131.858 158.1 131.884 158.284 131.865 158.466C131.847 158.648 131.784 158.823 131.682 158.974C131.58 159.126 131.442 159.25 131.281 159.336C131.119 159.422 130.939 159.467 130.757 159.467H124.167C123.984 159.467 123.804 159.422 123.643 159.336C123.482 159.25 123.344 159.126 123.242 158.974C123.14 158.823 123.077 158.648 123.058 158.466C123.04 158.284 123.066 158.1 123.135 157.931H121.733C121.11 157.931 120.513 158.178 120.073 158.619C119.633 159.059 119.386 159.656 119.386 160.278V190.027C119.386 190.335 119.447 190.64 119.565 190.925C119.683 191.21 119.855 191.469 120.073 191.687C120.291 191.905 120.55 192.078 120.835 192.195C121.119 192.313 121.424 192.374 121.733 192.374H133.29C133.598 192.374 133.903 192.313 134.188 192.195C134.473 192.078 134.731 191.905 134.949 191.687C135.167 191.469 135.34 191.21 135.458 190.925C135.576 190.64 135.637 190.335 135.637 190.027V160.278C135.637 159.97 135.576 159.665 135.458 159.38C135.34 159.095 135.167 158.837 134.949 158.619C134.731 158.401 134.473 158.228 134.188 158.11C133.903 157.992 133.598 157.931 133.29 157.931Z" fill="white"/>
<path d="M261.13 108.473H123.666V153.613H128.873V165.418L140.675 153.613H261.13V108.473Z" fill="white"/>
<path d="M128.437 166.472V154.05H123.23V108.037H261.566V154.05H140.856L128.437 166.472ZM124.102 153.177H129.309V164.365L140.494 153.177H260.693V108.91H124.102L124.102 153.177Z" fill="#3F3D56"/>
<path d="M201.474 123.759H138.966V125.657H201.474V123.759Z" fill="#4223FF"/>
<path d="M247.912 130.323H138.966V132.221H247.912V130.323Z" fill="#E6E6E6"/>
<path d="M247.806 136.887H138.966V138.785H247.806V136.887Z" fill="#E6E6E6"/>
<path d="M187.126 254H20.8953C20.7796 254 20.6686 253.954 20.5868 253.872C20.505 253.79 20.459 253.679 20.459 253.564C20.459 253.448 20.505 253.337 20.5868 253.255C20.6686 253.173 20.7796 253.127 20.8953 253.127H187.126C187.242 253.127 187.353 253.173 187.435 253.255C187.517 253.337 187.563 253.448 187.563 253.564C187.563 253.679 187.517 253.79 187.435 253.872C187.353 253.954 187.242 254 187.126 254Z" fill="#3F3D56"/>
</svg>
