<svg width="636" height="521" viewBox="0 0 636 521" fill="none" xmlns="http://www.w3.org/2000/svg">
<g clip-path="url(#clip0_9_69)">
<path d="M405.291 390.58V516.059H126.871C95.1491 516.059 69.3396 487.913 69.3396 453.319C69.3396 418.725 95.1491 390.58 126.871 390.58H405.291Z" fill="#F2F2F2"/>
<path d="M412.13 515.094C412.129 516.373 411.679 517.601 410.878 518.506C410.076 519.411 408.989 519.919 407.856 519.92H121.912C106.382 519.92 91.488 512.954 80.5065 500.554C69.525 488.155 63.3557 471.337 63.3557 453.802C63.3557 436.266 69.525 419.449 80.5065 407.049C91.488 394.65 106.382 387.684 121.912 387.684H407.856C408.989 387.684 410.076 388.192 410.878 389.098C411.68 390.003 412.13 391.23 412.13 392.51C412.13 393.79 411.68 395.018 410.878 395.923C410.076 396.828 408.989 397.336 407.856 397.336H121.912C108.649 397.336 95.9295 403.285 86.5511 413.875C77.1728 424.464 71.9041 438.826 71.9041 453.802C71.9041 468.777 77.1728 483.14 86.5511 493.729C95.9295 504.318 108.649 510.267 121.912 510.267H407.856C408.989 510.268 410.076 510.777 410.878 511.682C411.679 512.587 412.129 513.814 412.13 515.094Z" fill="#4223FF"/>
<path d="M405.291 419.536H106.098C105.871 419.536 105.654 419.435 105.493 419.254C105.333 419.073 105.243 418.827 105.243 418.571C105.243 418.315 105.333 418.07 105.493 417.889C105.654 417.708 105.871 417.606 106.098 417.606H405.291C405.518 417.606 405.735 417.708 405.896 417.889C406.056 418.07 406.146 418.315 406.146 418.571C406.146 418.827 406.056 419.073 405.896 419.254C405.735 419.435 405.518 419.536 405.291 419.536Z" fill="#CCCCCC"/>
<path d="M405.291 442.702H106.098C105.871 442.702 105.654 442.6 105.493 442.419C105.333 442.238 105.243 441.993 105.243 441.737C105.243 441.481 105.333 441.235 105.493 441.054C105.654 440.873 105.871 440.771 106.098 440.771H405.291C405.518 440.771 405.735 440.873 405.896 441.054C406.056 441.235 406.146 441.481 406.146 441.737C406.146 441.993 406.056 442.238 405.896 442.419C405.735 442.6 405.518 442.702 405.291 442.702Z" fill="#CCCCCC"/>
<path d="M405.291 465.867H106.098C105.871 465.867 105.654 465.765 105.493 465.584C105.333 465.403 105.243 465.158 105.243 464.902C105.243 464.646 105.333 464.4 105.493 464.219C105.654 464.038 105.871 463.937 106.098 463.937H405.291C405.518 463.937 405.735 464.038 405.896 464.219C406.056 464.4 406.146 464.646 406.146 464.902C406.146 465.158 406.056 465.403 405.896 465.584C405.735 465.765 405.518 465.867 405.291 465.867Z" fill="#CCCCCC"/>
<path d="M405.291 489.033H106.098C105.871 489.033 105.654 488.931 105.493 488.75C105.333 488.569 105.243 488.323 105.243 488.067C105.243 487.811 105.333 487.566 105.493 487.385C105.654 487.204 105.871 487.102 106.098 487.102H405.291C405.518 487.102 405.735 487.204 405.896 487.385C406.056 487.566 406.146 487.811 406.146 488.067C406.146 488.323 406.056 488.569 405.896 488.75C405.735 488.931 405.518 489.033 405.291 489.033Z" fill="#CCCCCC"/>
<path d="M620.469 414.2L550.744 511.908L333.944 314.664C309.243 292.191 304.785 251.99 324.008 225.052C343.23 198.114 378.967 194.482 403.669 216.956L620.469 414.2Z" fill="#F2F2F2"/>
<path d="M556.606 516.001C555.894 516.997 554.861 517.634 553.734 517.77C552.608 517.907 551.479 517.533 550.596 516.731L327.937 314.157C315.844 303.155 308.117 287.179 306.456 269.744C304.795 252.309 309.336 234.843 319.08 221.189C328.824 207.534 342.973 198.809 358.414 196.934C373.855 195.058 389.323 200.185 401.416 211.188L624.075 413.762C624.512 414.159 624.876 414.65 625.145 415.206C625.415 415.763 625.584 416.373 625.645 417.004C625.705 417.634 625.654 418.272 625.496 418.88C625.338 419.488 625.076 420.056 624.723 420.549C624.371 421.043 623.936 421.453 623.443 421.757C622.95 422.061 622.409 422.252 621.851 422.32C621.293 422.388 620.728 422.33 620.189 422.151C619.651 421.973 619.148 421.676 618.711 421.278L396.053 218.704C390.939 214.048 385.064 210.575 378.761 208.484C372.459 206.392 365.854 205.724 359.322 206.515C352.791 207.307 346.462 209.544 340.697 213.099C334.931 216.653 329.842 221.455 325.721 227.231C321.6 233.006 318.526 239.642 316.677 246.759C314.827 253.876 314.237 261.334 314.941 268.709C315.645 276.083 317.629 283.229 320.779 289.737C323.929 296.246 328.184 301.99 333.301 306.641L555.959 509.215C556.841 510.018 557.405 511.184 557.526 512.457C557.648 513.729 557.316 515.004 556.606 516.001Z" fill="#CCCCCC"/>
<path d="M604.379 436.748L371.403 224.787C371.315 224.707 371.242 224.609 371.189 224.498C371.135 224.387 371.101 224.265 371.089 224.139C371.077 224.012 371.087 223.885 371.119 223.763C371.15 223.642 371.203 223.528 371.273 223.43C371.344 223.331 371.431 223.249 371.529 223.188C371.628 223.127 371.736 223.089 371.847 223.076C371.959 223.062 372.072 223.073 372.18 223.109C372.287 223.145 372.388 223.204 372.475 223.284L605.451 435.244C605.539 435.324 605.612 435.422 605.666 435.533C605.72 435.645 605.754 435.767 605.766 435.893C605.778 436.019 605.768 436.147 605.736 436.268C605.705 436.39 605.652 436.504 605.581 436.602C605.511 436.701 605.424 436.783 605.325 436.844C605.227 436.905 605.118 436.943 605.007 436.956C604.895 436.97 604.782 436.958 604.674 436.923C604.566 436.887 604.466 436.827 604.379 436.748V436.748Z" fill="#CCCCCC"/>
<path d="M591.506 454.786L358.53 242.825C358.354 242.665 358.241 242.431 358.217 242.177C358.193 241.923 358.26 241.668 358.402 241.469C358.544 241.27 358.75 241.142 358.975 241.115C359.201 241.087 359.426 241.162 359.603 241.322L592.579 453.283C592.667 453.362 592.739 453.46 592.793 453.572C592.847 453.683 592.881 453.805 592.893 453.931C592.905 454.057 592.895 454.185 592.864 454.307C592.832 454.429 592.78 454.542 592.709 454.641C592.639 454.74 592.552 454.822 592.453 454.883C592.354 454.943 592.246 454.981 592.134 454.995C592.023 455.008 591.91 454.997 591.802 454.961C591.694 454.925 591.594 454.866 591.506 454.786Z" fill="#CCCCCC"/>
<path d="M578.634 472.824L345.658 260.864C345.481 260.703 345.369 260.47 345.344 260.215C345.32 259.961 345.386 259.706 345.529 259.507C345.671 259.307 345.877 259.18 346.103 259.152C346.328 259.125 346.554 259.2 346.731 259.361L579.707 471.321C579.794 471.401 579.867 471.499 579.921 471.61C579.974 471.721 580.008 471.844 580.02 471.97C580.032 472.096 580.022 472.223 579.991 472.345C579.959 472.466 579.906 472.58 579.836 472.678C579.766 472.777 579.679 472.859 579.58 472.92C579.482 472.981 579.373 473.019 579.262 473.033C579.15 473.046 579.037 473.035 578.93 472.999C578.822 472.963 578.721 472.904 578.634 472.824V472.824Z" fill="#CCCCCC"/>
<path d="M565.762 490.863L332.786 278.902C332.698 278.823 332.626 278.724 332.572 278.613C332.518 278.502 332.484 278.38 332.472 278.254C332.46 278.128 332.47 278 332.502 277.879C332.534 277.757 332.586 277.644 332.657 277.545C332.727 277.446 332.814 277.364 332.912 277.303C333.011 277.243 333.119 277.204 333.231 277.191C333.342 277.177 333.455 277.189 333.563 277.224C333.671 277.26 333.771 277.319 333.858 277.399L566.835 489.36C566.922 489.439 566.995 489.537 567.049 489.649C567.103 489.76 567.137 489.882 567.149 490.008C567.161 490.134 567.151 490.262 567.119 490.384C567.088 490.505 567.035 490.619 566.965 490.718C566.894 490.816 566.807 490.899 566.709 490.959C566.61 491.02 566.502 491.058 566.39 491.072C566.278 491.085 566.165 491.074 566.058 491.038C565.95 491.002 565.849 490.943 565.762 490.863Z" fill="#CCCCCC"/>
<path d="M635.145 520.885H0.854839C0.628121 520.885 0.410689 520.783 0.250376 520.602C0.0900625 520.421 0 520.176 0 519.92C0 519.664 0.0900625 519.418 0.250376 519.237C0.410689 519.056 0.628121 518.954 0.854839 518.954H635.145C635.372 518.954 635.589 519.056 635.75 519.237C635.91 519.418 636 519.664 636 519.92C636 520.176 635.91 520.421 635.75 520.602C635.589 520.783 635.372 520.885 635.145 520.885Z" fill="#CCCCCC"/>
<path d="M289.005 377.391L279.232 377.39L274.584 334.827L289.008 334.829L289.005 377.391Z" fill="#FFB8B8"/>
<path d="M272.251 374.237H291.098V387.636H260.384C260.384 385.877 260.691 384.134 261.288 382.509C261.884 380.883 262.758 379.406 263.86 378.162C264.962 376.917 266.27 375.93 267.71 375.257C269.15 374.584 270.693 374.237 272.251 374.237Z" fill="#0D053E"/>
<path d="M189.164 377.391L179.391 377.39L174.744 334.827L189.167 334.829L189.164 377.391Z" fill="#FFB8B8"/>
<path d="M172.411 374.237H191.258V387.636H160.544C160.544 385.877 160.851 384.134 161.447 382.509C162.043 380.883 162.918 379.406 164.02 378.162C165.121 376.917 166.43 375.93 167.869 375.257C169.309 374.584 170.852 374.237 172.411 374.237Z" fill="#0D053E"/>
<path d="M221.806 61.6766V56.8504C221.806 48.5946 224.71 40.677 229.88 34.8393C235.05 29.0015 242.063 25.7219 249.374 25.7219H249.374C256.686 25.7219 263.698 29.0015 268.868 34.8393C274.038 40.677 276.943 48.5946 276.943 56.8504V61.6766C276.943 67.6285 274.849 73.3365 271.122 77.5451C267.394 81.7537 262.339 84.1181 257.068 84.1181H241.681C239.071 84.1181 236.486 83.5376 234.075 82.4098C231.664 81.2821 229.472 79.629 227.627 77.5451C225.781 75.4612 224.317 72.9873 223.319 70.2646C222.32 67.5419 221.806 64.6237 221.806 61.6766Z" fill="#0D053E"/>
<path d="M249.374 85.7787C260.97 85.7787 270.37 75.1648 270.37 62.0718C270.37 48.9788 260.97 38.3649 249.374 38.3649C237.779 38.3649 228.379 48.9788 228.379 62.0718C228.379 75.1648 237.779 85.7787 249.374 85.7787Z" fill="#FFB8B8"/>
<path d="M135.171 143.549C136.023 142.641 137.041 141.954 138.153 141.538C139.266 141.122 140.446 140.987 141.609 141.141C142.773 141.295 143.893 141.736 144.89 142.432C145.886 143.128 146.736 144.062 147.378 145.168L165.377 141.324L170.113 153.104L144.629 158.13C142.911 159.225 140.896 159.571 138.968 159.102C137.039 158.632 135.33 157.38 134.164 155.583C132.998 153.786 132.457 151.568 132.643 149.35C132.828 147.132 133.728 145.068 135.171 143.549V143.549Z" fill="#FFB8B8"/>
<path d="M233.006 100.709L233.241 101.111L203.727 123.065L153.926 141.021C153.265 141.26 152.699 141.751 152.323 142.409C151.947 143.067 151.785 143.851 151.864 144.629L152.95 155.195C152.998 155.663 153.132 156.114 153.344 156.52C153.556 156.925 153.84 157.276 154.179 157.551C154.518 157.825 154.904 158.016 155.312 158.112C155.72 158.209 156.141 158.207 156.549 158.109L203.42 146.765C205.688 146.219 207.833 145.153 209.721 143.632L242.879 116.995C244.081 116.024 245.04 114.718 245.663 113.205C246.285 111.692 246.551 110.022 246.433 108.359C246.312 106.693 245.808 105.091 244.972 103.712C244.136 102.333 242.997 101.223 241.666 100.491C240.334 99.7603 238.858 99.4328 237.381 99.5415C235.903 99.6502 234.477 100.191 233.241 101.111L233.006 100.709Z" fill="#CCCCCC"/>
<path d="M279.407 365.313C278.657 365.313 277.923 365.066 277.295 364.603C276.666 364.14 276.171 363.481 275.87 362.705L231.068 237.708C230.963 237.437 230.787 237.208 230.564 237.053C230.341 236.898 230.082 236.824 229.82 236.841C229.559 236.857 229.308 236.964 229.102 237.146C228.896 237.329 228.744 237.578 228.667 237.861L192.115 359.55C191.961 360.116 191.706 360.641 191.365 361.092C191.025 361.543 190.606 361.91 190.135 362.171C189.664 362.433 189.151 362.583 188.627 362.612C188.103 362.641 187.579 362.549 187.088 362.341L174.831 357.151C174.165 356.872 173.582 356.39 173.144 355.758C172.707 355.127 172.434 354.371 172.354 353.575C166.84 299.337 214.925 162.432 215.412 161.056L215.546 160.674L259.38 171.623L259.471 171.735C276.959 193.277 291.334 329.146 294.038 356.164C294.139 357.14 293.942 358.125 293.48 358.958C293.019 359.791 292.319 360.421 291.498 360.745L280.679 365.066C280.27 365.229 279.84 365.313 279.407 365.313Z" fill="#0D053E"/>
<path d="M241.639 176.029C231.019 176.029 219.179 173.638 215.535 163.77L215.451 163.544L215.564 163.333C218.441 158.004 222.243 148.912 220.199 147.206C216.174 143.845 214.22 138.316 214.394 130.773C214.77 114.397 224.652 99.8576 238.984 94.5936H238.984C242.984 93.1481 247.055 91.9645 251.176 91.049C254.181 90.3644 257.282 90.4397 260.258 91.2694C263.234 92.0992 266.01 93.6627 268.387 95.8477C270.793 98.0471 272.739 100.821 274.083 103.97C275.428 107.12 276.138 110.566 276.162 114.062C276.312 131.562 273.926 155.937 261.705 172.671C261.132 173.447 260.335 173.971 259.454 174.149C253.574 175.35 247.614 175.979 241.639 176.029Z" fill="#CCCCCC"/>
<path d="M237.689 175.374C238.267 173.033 239.64 171.044 241.509 169.84C243.378 168.635 245.593 168.313 247.672 168.942C248.096 169.076 248.51 169.249 248.91 169.459L262.576 155.416L272.08 162.646L252.537 182.173C251.654 183.97 250.265 185.382 248.59 186.184C246.915 186.986 245.05 187.133 243.293 186.601C242.269 186.284 241.311 185.742 240.475 185.005C239.638 184.268 238.938 183.351 238.417 182.307C237.896 181.263 237.563 180.113 237.438 178.923C237.313 177.733 237.398 176.527 237.689 175.374Z" fill="#FFB8B8"/>
<path d="M260.411 175.552C259.524 175.553 258.665 175.207 257.979 174.572L252.589 169.6C252.14 169.185 251.78 168.661 251.535 168.067C251.291 167.473 251.168 166.824 251.177 166.169C251.186 165.514 251.326 164.87 251.587 164.285C251.848 163.7 252.222 163.189 252.683 162.79L275.286 143.215C275.554 142.982 275.73 142.639 275.775 142.261C275.82 141.882 275.732 141.499 275.528 141.194L261.577 120.368C259.956 117.956 259.143 114.975 259.282 111.952C259.421 108.928 260.503 106.058 262.336 103.849C264.266 101.494 266.91 100.045 269.743 99.7896C272.575 99.5338 275.389 100.49 277.627 102.468L277.715 102.573L292.283 126.126C293.858 127.521 295.127 129.308 295.99 131.348C296.852 133.388 297.285 135.625 297.256 137.885C297.226 140.145 296.734 142.367 295.818 144.376C294.902 146.386 293.587 148.13 291.975 149.471L262.701 174.701C262.038 175.254 261.235 175.552 260.411 175.552Z" fill="#CCCCCC"/>
<path d="M230.777 55.4026V43.6403L249.374 34.4706L267.107 43.6403V55.4026C267.107 55.9146 266.927 56.4056 266.607 56.7677C266.286 57.1297 265.851 57.3331 265.398 57.3331H232.486C232.033 57.3331 231.598 57.1297 231.277 56.7677C230.957 56.4056 230.777 55.9146 230.777 55.4026Z" fill="#0D053E"/>
<path d="M248.521 27.2824C245.786 17.3999 251.529 6.07412 260.019 2.16238C268.509 -1.74935 278.666 0.985072 285.83 7.44785C292.993 13.9106 297.438 23.5907 299.793 33.5969C302.148 43.6032 302.595 54.0373 303.03 64.3792C313.461 66.5427 320.556 80.5123 316.943 91.7707C313.33 103.029 299.955 108.622 290.718 102.738C281.482 96.8534 278.807 81.0352 285.473 71.7216C288.627 67.3147 290.389 61.8454 290.48 56.1801C290.57 50.5148 288.984 44.9773 285.973 40.4445C282.962 35.9118 278.697 32.6431 273.855 31.156C269.013 29.6689 263.869 30.0484 259.24 32.2346C254.099 34.662 247.649 28.355 248.521 27.2824Z" fill="#0D053E"/>
<path d="M131.315 97.9205C118.827 97.828 106.494 94.7782 95.1145 88.9682C94.4371 88.6273 93.8621 88.0713 93.4596 87.368C93.0571 86.6646 92.8445 85.8443 92.8476 85.0069V49.8554C92.8487 48.7038 93.2544 47.5998 93.9755 46.7855C94.6967 45.9712 95.6745 45.5132 96.6943 45.5119H165.936C166.956 45.5132 167.934 45.9712 168.655 46.7855C169.376 47.5998 169.782 48.7038 169.783 49.8554V85.0069C169.786 85.8443 169.573 86.6646 169.171 87.368C168.768 88.0713 168.194 88.6273 167.516 88.9682C156.136 94.7782 143.804 97.828 131.315 97.9205Z" fill="#4223FF"/>
<path d="M131.306 69.4436C130.793 69.4441 130.284 69.3287 129.811 69.1042L74.9031 42.947C74.195 42.6097 73.5926 42.0407 73.1736 41.3133C72.7546 40.5858 72.5382 39.7334 72.5523 38.8658C72.5664 37.9982 72.8103 37.1552 73.2526 36.4456C73.6949 35.736 74.3154 35.1923 75.0339 34.8845L129.943 11.3642C130.827 10.9836 131.805 10.986 132.688 11.3708L186.861 34.891C187.575 35.2013 188.191 35.7452 188.631 36.4531C189.07 37.161 189.312 38.0008 189.326 38.865C189.34 39.7291 189.126 40.5784 188.71 41.3042C188.294 42.0299 187.696 42.5992 186.992 42.939L132.819 69.0957C132.34 69.3258 131.826 69.4441 131.306 69.4436Z" fill="#4223FF"/>
<path d="M99.2589 91.36C102.092 91.36 104.388 88.7671 104.388 85.5687C104.388 82.3702 102.092 79.7773 99.2589 79.7773C96.4262 79.7773 94.1299 82.3702 94.1299 85.5687C94.1299 88.7671 96.4262 91.36 99.2589 91.36Z" fill="#0D053E"/>
<path opacity="0.2" d="M187.18 39.2262L133.006 65.383C132.583 65.5869 132.129 65.6926 131.67 65.6939C131.21 65.6951 130.756 65.5919 130.332 65.3903L75.4244 39.2338C74.7348 38.9132 74.1596 38.3422 73.7894 37.6112C73.5473 38.0852 73.3973 38.612 73.3493 39.1565C73.3013 39.7011 73.3565 40.2509 73.5111 40.7695C73.6657 41.2881 73.9163 41.7637 74.2462 42.1646C74.5761 42.5655 74.9777 42.8825 75.4244 43.0947L130.332 69.2512C130.756 69.4528 131.21 69.556 131.67 69.5548C132.129 69.5535 132.583 69.4478 133.006 69.2439L187.18 43.0871C187.624 42.873 188.023 42.5549 188.351 42.1539C188.678 41.7528 188.927 41.2778 189.08 40.7603C189.233 40.2428 189.287 39.6946 189.239 39.1517C189.19 38.6089 189.04 38.0838 188.799 37.6111C188.432 38.3363 187.862 38.9041 187.18 39.2262Z" fill="#0D053E"/>
<path d="M99.6898 85.546C99.9165 85.546 100.134 85.4444 100.294 85.2633C100.455 85.0823 100.545 84.8368 100.545 84.5808V52.283L128.738 40.6857C128.965 40.6895 129.184 40.5915 129.346 40.4132C129.509 40.2349 129.602 39.9909 129.606 39.7349C129.609 39.4789 129.522 39.2319 129.364 39.0481C129.207 38.8644 128.99 38.7591 128.764 38.7553L100.57 50.3526C100.343 50.3467 100.118 50.3929 99.907 50.4883C99.6964 50.5837 99.5052 50.7264 99.3448 50.9078C99.1828 51.0869 99.0542 51.3009 98.9666 51.5371C98.879 51.7733 98.8343 52.027 98.835 52.283V84.5808C98.835 84.8368 98.925 85.0823 99.0854 85.2633C99.2457 85.4443 99.4631 85.546 99.6898 85.546Z" fill="#0D053E"/>
</g>
<defs>
<clipPath id="clip0_9_69">
<rect width="636" height="520.532" fill="white" transform="translate(0 0.352936)"/>
</clipPath>
</defs>
</svg>
