<svg width="664" height="489" viewBox="0 0 664 489" fill="none" xmlns="http://www.w3.org/2000/svg">
<path d="M664 181.07H384.896V189.253H664V181.07Z" fill="#E3E3E3" fill-opacity="0.6"/>
<path d="M478.675 112.627H407.969V183.302H478.675V112.627Z" fill="#E3E3E3" fill-opacity="0.6"/>
<path d="M464.534 126.762H422.11V169.167H464.534V126.762Z" fill="#CCCCCC"/>
<path d="M584.362 112.627H566.5V183.302H584.362V112.627Z" fill="#E3E3E3" fill-opacity="0.6"/>
<path d="M584.362 123.786H566.5V131.97H584.362V123.786Z" fill="#CCCCCC"/>
<path d="M584.362 159.495H566.5V167.679H584.362V159.495Z" fill="#CCCCCC"/>
<path d="M556.824 112.627H538.962V183.302H556.824V112.627Z" fill="#E3E3E3" fill-opacity="0.6"/>
<path d="M556.824 123.786H538.962V131.97H556.824V123.786Z" fill="#CCCCCC"/>
<path d="M556.824 159.495H538.962V167.679H556.824V159.495Z" fill="#CCCCCC"/>
<path d="M599.753 112.335L583.745 120.257L615.117 183.594L631.125 175.672L599.753 112.335Z" fill="#E3E3E3" fill-opacity="0.6"/>
<path d="M604.707 122.336L588.698 130.257L592.331 137.591L608.339 129.669L604.707 122.336Z" fill="#CCCCCC"/>
<path d="M620.558 154.337L604.55 162.259L608.182 169.593L624.19 161.671L620.558 154.337Z" fill="#CCCCCC"/>
<path d="M434.39 140.996L443.386 156.569L452.382 172.142H434.39H416.4L425.395 156.569L434.39 140.996Z" fill="#E3E3E3" fill-opacity="0.6"/>
<path d="M450.02 143.972L459.016 159.545L468.012 175.118H450.02H432.03L441.025 159.545L450.02 143.972Z" fill="#E3E3E3" fill-opacity="0.6"/>
<path d="M456.347 139.409C459.224 139.409 461.557 137.078 461.557 134.201C461.557 131.325 459.224 128.994 456.347 128.994C453.47 128.994 451.137 131.325 451.137 134.201C451.137 137.078 453.47 139.409 456.347 139.409Z" fill="#E3E3E3" fill-opacity="0.6"/>
<path d="M384.896 76.9181L664 76.9181V68.7347L384.896 68.7347V76.9181Z" fill="#E3E3E3" fill-opacity="0.6"/>
<path d="M570.221 70.9666L640.927 70.9666V0.292244L570.221 0.292244V70.9666Z" fill="#E3E3E3" fill-opacity="0.6"/>
<path d="M584.362 56.8317L626.786 56.8317V14.4271L584.362 14.4271V56.8317Z" fill="#CCCCCC"/>
<path d="M464.534 70.9666H482.396V0.292244H464.534V70.9666Z" fill="#E3E3E3" fill-opacity="0.6"/>
<path d="M464.534 19.6346L482.396 19.6346V11.4513L464.534 11.4513V19.6346Z" fill="#CCCCCC"/>
<path d="M464.534 55.3439H482.396V47.1605H464.534V55.3439Z" fill="#CCCCCC"/>
<path d="M492.072 70.9666H509.935V0.292244H492.072V70.9666Z" fill="#E3E3E3" fill-opacity="0.6"/>
<path d="M492.072 19.6346L509.935 19.6346V11.4513L492.072 11.4513V19.6346Z" fill="#CCCCCC"/>
<path d="M492.072 55.3439H509.935V47.1605H492.072V55.3439Z" fill="#CCCCCC"/>
<path d="M417.771 63.3369L433.78 71.2588L465.151 7.92189L449.143 -2.8589e-06L417.771 63.3369Z" fill="#E3E3E3" fill-opacity="0.6"/>
<path d="M440.557 17.3343L456.565 25.2562L460.198 17.9225L444.19 10.0006L440.557 17.3343Z" fill="#CCCCCC"/>
<path d="M424.706 49.3362L440.714 57.2581L444.347 49.9243L428.339 42.0024L424.706 49.3362Z" fill="#CCCCCC"/>
<path d="M614.505 28.6606L605.51 44.2339L596.515 59.8072H614.505H632.497L623.501 44.2339L614.505 28.6606Z" fill="#E3E3E3" fill-opacity="0.6"/>
<path d="M598.876 31.6364L589.88 47.2096L580.885 62.7829H598.876H616.867L607.872 47.2096L598.876 31.6364Z" fill="#E3E3E3" fill-opacity="0.6"/>
<path d="M592.55 27.0741C595.427 27.0741 597.759 24.7426 597.759 21.8665C597.759 18.9904 595.427 16.6589 592.55 16.6589C589.672 16.6589 587.34 18.9904 587.34 21.8665C587.34 24.7426 589.672 27.0741 592.55 27.0741Z" fill="#E3E3E3" fill-opacity="0.6"/>
<path d="M384.896 301.588L664 301.588V293.405L384.896 293.405V301.588Z" fill="#E3E3E3" fill-opacity="0.6"/>
<path d="M570.221 295.636H640.927V224.962H570.221V295.636Z" fill="#E3E3E3" fill-opacity="0.6"/>
<path d="M584.362 281.502H626.786V239.097H584.362V281.502Z" fill="#CCCCCC"/>
<path d="M464.534 295.636H482.396V224.962H464.534V295.636Z" fill="#E3E3E3" fill-opacity="0.6"/>
<path d="M464.534 244.305H482.396V236.121H464.534V244.305Z" fill="#CCCCCC"/>
<path d="M464.534 280.014H482.396V271.83H464.534V280.014Z" fill="#CCCCCC"/>
<path d="M492.072 295.636H509.935V224.962H492.072V295.636Z" fill="#E3E3E3" fill-opacity="0.6"/>
<path d="M492.072 244.305H509.935V236.121H492.072V244.305Z" fill="#CCCCCC"/>
<path d="M492.072 280.014H509.935V271.83H492.072V280.014Z" fill="#CCCCCC"/>
<path d="M417.771 288.007L433.78 295.929L465.151 232.592L449.143 224.67L417.771 288.007Z" fill="#E3E3E3" fill-opacity="0.6"/>
<path d="M440.557 242.004L456.565 249.926L460.198 242.592L444.19 234.671L440.557 242.004Z" fill="#CCCCCC"/>
<path d="M424.706 274.006L440.714 281.928L444.347 274.594L428.339 266.672L424.706 274.006Z" fill="#CCCCCC"/>
<path d="M614.505 253.33L605.51 268.904L596.515 284.478H614.505H632.497L623.501 268.904L614.505 253.33Z" fill="#E3E3E3" fill-opacity="0.6"/>
<path d="M598.876 256.306L589.88 271.88L580.885 287.454H598.876H616.867L607.872 271.88L598.876 256.306Z" fill="#E3E3E3" fill-opacity="0.6"/>
<path d="M592.55 251.744C595.427 251.744 597.759 249.413 597.759 246.536C597.759 243.66 595.427 241.329 592.55 241.329C589.672 241.329 587.34 243.66 587.34 246.536C587.34 249.413 589.672 251.744 592.55 251.744Z" fill="#E3E3E3" fill-opacity="0.6"/>
<path d="M328.784 489C510.367 489 657.569 478.55 657.569 465.659C657.569 452.769 510.367 442.319 328.784 442.319C147.202 442.319 0 452.769 0 465.659C0 478.55 147.202 489 328.784 489Z" fill="#E3E3E3" fill-opacity="0.6"/>
<path d="M585.647 478.73C532.036 469.193 473.411 470.778 411.915 478.73C439.944 455.078 464.134 431.426 436.105 407.775C490.779 419.049 498.437 417.908 559.257 407.775C545.151 431.426 571.54 455.078 585.647 478.73Z" fill="#4223FF"/>
<path opacity="0.2" d="M585.647 478.73C532.036 469.193 473.411 470.778 411.915 478.73C439.944 455.078 464.134 431.426 436.105 407.775C490.779 419.049 498.437 417.908 559.257 407.775C545.151 431.426 571.54 455.078 585.647 478.73Z" fill="#0D053E"/>
<path d="M572.571 468.64C527.03 461.026 477.23 462.292 424.991 468.64C448.801 449.76 469.35 430.881 445.54 412.001C491.984 421.001 498.489 420.09 550.153 412.001C538.17 430.881 560.587 449.76 572.571 468.64Z" fill="#4223FF"/>
<path d="M555.225 438.22C568.626 438.22 579.49 427.361 579.49 413.966C579.49 400.571 568.626 389.712 555.225 389.712C541.824 389.712 530.96 400.571 530.96 413.966C530.96 427.361 541.824 438.22 555.225 438.22Z" fill="#0D053E"/>
<path d="M445.073 385.834L461.886 388.635L470.292 412.909L446.007 427.848L417.985 385.834H444.139H445.073Z" fill="#A0616A"/>
<path d="M492.71 423.18C514.376 423.18 531.94 405.624 531.94 383.967C531.94 362.311 514.376 344.755 492.71 344.755C471.043 344.755 453.48 362.311 453.48 383.967C453.48 405.624 471.043 423.18 492.71 423.18Z" fill="#A0616A"/>
<path d="M276.011 241.123C276.011 241.123 180.738 251.393 163.925 249.525C147.112 247.658 139.64 245.791 139.64 245.791C139.64 245.791 128.431 260.729 134.036 267.264C137.174 271.03 140.972 274.194 145.244 276.6C145.244 276.6 155.519 273.8 162.991 276.6C170.464 279.401 246.121 291.538 259.198 280.335C272.275 269.131 276.011 241.123 276.011 241.123Z" fill="#0D053E"/>
<path d="M282.549 449.321C282.549 449.321 219.968 431.582 208.759 353.158V345.689C208.759 345.689 196.377 367.402 191.947 371.83C186.809 376.965 168.595 423.179 169.529 427.848C170.464 432.516 169.529 434.383 169.529 434.383L142.442 431.582V423.179C142.442 423.179 156.92 379.766 157.854 369.496C158.788 359.226 193.815 287.804 193.815 287.804C193.815 287.804 206.891 260.729 229.308 287.804C251.726 314.879 253.594 333.552 253.594 333.552L282.549 389.569L282.549 449.321Z" fill="#0D053E"/>
<path d="M142.442 242.99L112.553 232.72C112.553 232.72 84.5312 212.18 91.0695 232.72C97.6079 253.26 127.497 298.074 135.904 293.406C144.31 288.738 154.42 277.15 152.167 275.475C149.914 273.8 134.97 261.662 142.442 242.99Z" fill="#0D053E"/>
<path d="M146.055 417.667L121.927 429.446C121.927 429.446 92.7484 433.933 109.021 442.346C125.293 450.759 170.183 459.733 172.428 451.88C174.672 444.028 173.782 430.997 171.421 431.343C169.061 431.689 152.788 433.372 146.055 417.667Z" fill="#0D053E"/>
<path d="M270.406 387.702C270.406 387.702 258.264 439.985 278.813 451.188C299.362 462.392 443.205 464.259 454.414 443.719C465.622 423.179 460.018 423.179 460.018 423.179L430.128 389.569L454.414 387.702C454.414 387.702 454.414 380.233 446.007 379.299C437.601 378.366 411.447 369.029 389.03 375.565C366.613 382.1 353.537 362.494 353.537 362.494L270.406 387.702Z" fill="#575A89"/>
<path d="M254.528 224.317L238.649 311.145L347.933 298.074L367.547 219.649L254.528 224.317Z" fill="#0D053E"/>
<path d="M257.797 227.585L244.72 305.076L344.196 293.406L363.344 222.917L257.797 227.585Z" fill="white"/>
<path d="M242.385 312.078L238.649 311.145L236.781 314.879L266.671 397.972L269.481 396.898L270.406 391.437L242.385 312.078Z" fill="#B3B3B3"/>
<path d="M238.649 310.211L268.538 397.038L381.558 380.233L347.933 298.074L238.649 310.211Z" fill="#D0CDE1"/>
<path d="M253.594 307.41V312.078L336.724 302.742L335.79 298.074L253.594 307.41Z" fill="#0D053E"/>
<path d="M255.462 316.746L268.538 353.158L353.537 342.888L338.592 308.344L255.462 316.746Z" fill="#0D053E"/>
<path d="M361.943 368.096L359.141 360.627C359.141 360.627 337.658 323.282 326.449 330.751C315.241 338.22 349.8 374.631 349.8 374.631H361.009L361.943 368.096Z" fill="#A0616A"/>
<path d="M290.955 373.697L288.153 362.494C288.153 362.494 280.681 327.95 293.758 329.817C306.834 331.684 310.57 364.361 310.57 364.361L309.636 371.83L290.955 373.697Z" fill="#A0616A"/>
<path d="M313.373 369.029C313.373 369.029 289.087 365.295 288.153 370.896C287.219 376.498 282.549 460.524 305.9 463.325C329.251 466.126 445.073 478.263 432.931 449.321C420.788 420.379 402.107 424.113 402.107 424.113L322.713 432.516L313.373 369.029Z" fill="#575A89"/>
<path d="M386.695 379.766L361.943 362.494L345.597 375.098L366.146 397.505L386.695 379.766Z" fill="#575A89"/>
<path opacity="0.2" d="M320.378 396.571L324.114 432.049L388.564 428.315L332.52 427.381L320.378 396.571Z" fill="#0D053E"/>
<path d="M512.075 437.773C537.868 437.773 558.777 416.874 558.777 391.092C558.777 365.311 537.868 344.411 512.075 344.411C486.282 344.411 465.372 365.311 465.372 391.092C465.372 416.874 486.282 437.773 512.075 437.773Z" fill="#0D053E"/>
<path d="M271.808 254.66L329.719 252.645L335.323 231.32L275.544 233.123L271.808 254.66Z" fill="#4223FF"/>
<path d="M256.863 266.798L344.663 263.996L345.597 260.262L257.797 263.352L256.863 266.798Z" fill="#E3E3E3" fill-opacity="0.6"/>
<path d="M254.995 276.134L342.795 273.333L343.729 269.598L255.929 272.688L254.995 276.134Z" fill="#E3E3E3" fill-opacity="0.6"/>
<path d="M254.061 283.602L341.861 280.802L342.795 277.067L254.995 280.156L254.061 283.602Z" fill="#E3E3E3" fill-opacity="0.6"/>
</svg>
