<svg width="55" height="55" viewBox="0 0 55 55" fill="none" xmlns="http://www.w3.org/2000/svg">
<path d="M39.7222 32.3125C39.0131 31.0543 38.0533 29.9549 36.9023 29.0825C35.7513 28.21 34.4336 27.583 33.0305 27.2403C31.7141 26.8453 30.378 26.5189 29.0277 26.2625V12.4055C31.7122 12.6935 34.2733 13.6842 36.4527 15.2778C36.6032 15.4112 36.7785 15.5137 36.9686 15.5793C37.1586 15.645 37.3598 15.6726 37.5605 15.6606C37.7613 15.6485 37.9577 15.597 38.1385 15.5091C38.3194 15.4211 38.4811 15.2984 38.6146 15.1479C38.748 14.9974 38.8504 14.8222 38.9161 14.6321C38.9818 14.442 39.0094 14.2408 38.9973 14.0401C38.9853 13.8394 38.9338 13.643 38.8458 13.4621C38.7579 13.2813 38.6352 13.1195 38.4847 12.9861C35.7504 10.8802 32.467 9.60717 29.0277 9.31943V4.58332C29.0277 4.17813 28.8668 3.78953 28.5803 3.50302C28.2938 3.2165 27.9052 3.05554 27.5 3.05554C27.0948 3.05554 26.7062 3.2165 26.4197 3.50302C26.1332 3.78953 25.9722 4.17813 25.9722 4.58332V9.16665C19.25 9.31943 15.5375 12.6653 14.4069 15.5528C13.6527 17.4121 13.581 19.4785 14.2046 21.3856C14.8282 23.2928 16.1068 24.9176 17.8139 25.9722C20.2986 27.4869 23.0818 28.4459 25.9722 28.7833V42.7778C21.9836 42.577 18.1628 41.1107 15.0639 38.5917C14.9256 38.4271 14.7541 38.2935 14.5606 38.1998C14.3672 38.106 14.1562 38.0541 13.9413 38.0475C13.7264 38.0408 13.5126 38.0796 13.3137 38.1613C13.1149 38.243 12.9355 38.3657 12.7873 38.5214C12.6392 38.6772 12.5255 38.8624 12.4538 39.0651C12.3822 39.2678 12.3541 39.4833 12.3714 39.6976C12.3887 39.9118 12.451 40.1201 12.5543 40.3086C12.6576 40.4971 12.7995 40.6617 12.9708 40.7917C16.6251 43.8682 21.199 45.6419 25.9722 45.8333V50.4167C25.9722 50.8218 26.1332 51.2104 26.4197 51.497C26.7062 51.7835 27.0948 51.9444 27.5 51.9444C27.9052 51.9444 28.2938 51.7835 28.5803 51.497C28.8668 51.2104 29.0277 50.8218 29.0277 50.4167V45.8333C33.3361 45.543 38.3014 44.168 40.1805 38.5611C40.5205 37.5409 40.655 36.4634 40.5764 35.3909C40.4977 34.3185 40.2074 33.2722 39.7222 32.3125ZM19.5402 23.4055C18.4247 22.7415 17.5825 21.7012 17.1653 20.4718C16.748 19.2424 16.783 17.9045 17.2639 16.6986C17.4319 16.2403 19.143 12.4055 25.9722 12.2222V25.6667C23.6931 25.3734 21.5015 24.6029 19.5402 23.4055ZM37.2777 37.5222C36.1777 40.7917 33.7333 42.3653 29.0277 42.7167V29.3792C30.0055 29.593 31.0139 29.8375 32.0833 30.1583C33.0935 30.3878 34.0466 30.8203 34.8844 31.4296C35.7222 32.039 36.4274 32.8124 36.9569 33.7028C37.5561 34.8858 37.6712 36.2557 37.2777 37.5222Z" fill="#4223FF"/>
</svg>
