<svg width="56" height="56" viewBox="0 0 56 56" fill="none" xmlns="http://www.w3.org/2000/svg">
<path d="M49.5534 12.3397L28.5534 5.33973C28.1942 5.22009 27.8058 5.22009 27.4466 5.33973L6.48025 12.3288L6.47806 12.3295L6.44656 12.34C6.44044 12.3421 6.43497 12.3454 6.42906 12.3476C6.35319 12.3736 6.27922 12.4049 6.20769 12.4412C6.19959 12.4456 6.19106 12.4489 6.18297 12.4533C6.11223 12.491 6.04419 12.5337 5.97931 12.5808C5.96508 12.5911 5.95101 12.6016 5.93709 12.6123C5.87389 12.6601 5.81396 12.712 5.75772 12.7678C5.75269 12.7733 5.74809 12.779 5.74306 12.7842C5.69127 12.8382 5.64297 12.8954 5.59847 12.9555C5.58928 12.9678 5.57988 12.9796 5.57113 12.992C5.5252 13.057 5.48376 13.1249 5.44709 13.1955C5.44141 13.2064 5.43659 13.2174 5.43112 13.2283C5.39691 13.2975 5.36731 13.3689 5.34253 13.442C5.34034 13.4488 5.33728 13.4554 5.33509 13.4624C5.31039 13.54 5.29117 13.6193 5.27756 13.6997C5.27472 13.7165 5.27231 13.7334 5.26991 13.75C5.25732 13.8328 5.25067 13.9163 5.25 14V31.5C5.25 31.9642 5.43437 32.4093 5.76256 32.7375C6.09075 33.0657 6.53587 33.25 7 33.25C7.46413 33.25 7.90925 33.0657 8.23744 32.7375C8.56563 32.4093 8.75 31.9642 8.75 31.5V16.4282L16.0967 18.8771C14.1491 22.0219 13.5259 25.81 14.3634 29.4131C15.2009 33.0161 17.4308 36.141 20.5658 38.1045C16.3913 39.683 12.8291 42.5519 10.3972 46.2941C10.2685 46.4866 10.1793 46.7026 10.1348 46.9298C10.0902 47.157 10.0912 47.3908 10.1376 47.6176C10.184 47.8444 10.275 48.0597 10.4052 48.2511C10.5354 48.4425 10.7023 48.6062 10.8963 48.7326C11.0902 48.859 11.3073 48.9457 11.535 48.9877C11.7626 49.0296 11.9964 49.026 12.2226 48.977C12.4489 48.928 12.6632 48.8345 12.853 48.7021C13.0429 48.5697 13.2047 48.4009 13.3289 48.2055C14.9187 45.7631 17.0933 43.7562 19.6552 42.3669C22.2171 40.9777 25.0853 40.2501 27.9997 40.2501C30.914 40.2501 33.7822 40.9777 36.3442 42.3669C38.9061 43.7562 41.0806 45.7631 42.6705 48.2055C42.7954 48.3994 42.9574 48.5666 43.1471 48.6976C43.3369 48.8286 43.5506 48.9208 43.7761 48.9689C44.0016 49.0171 44.2344 49.0201 44.4611 48.978C44.6878 48.9359 44.904 48.8494 45.0971 48.7234C45.2903 48.5975 45.4567 48.4347 45.5867 48.2442C45.7167 48.0538 45.8078 47.8395 45.8547 47.6138C45.9017 47.388 45.9036 47.1552 45.8603 46.9288C45.8169 46.7023 45.7293 46.4866 45.6024 46.2941C43.1705 42.552 39.6084 39.6832 35.434 38.1048C38.569 36.1412 40.799 33.0163 41.6365 29.4132C42.4739 25.8101 41.8507 22.022 39.9031 18.8771L49.5534 15.6604C49.902 15.5443 50.2051 15.3214 50.42 15.0234C50.6348 14.7254 50.7504 14.3674 50.7504 14C50.7504 13.6327 50.6348 13.2746 50.42 12.9767C50.2051 12.6787 49.902 12.4558 49.5534 12.3397V12.3397ZM38.5 26.25C38.5004 27.91 38.1073 29.5464 37.3528 31.025C36.5983 32.5036 35.5041 33.7823 34.1597 34.7561C32.8154 35.7299 31.2594 36.3711 29.6193 36.6271C27.9792 36.8831 26.3017 36.7466 24.7246 36.2288C23.1474 35.711 21.7155 34.8266 20.5464 33.6482C19.3772 32.4699 18.5041 31.0311 17.9986 29.45C17.4932 27.8688 17.3698 26.1904 17.6386 24.5523C17.9074 22.9142 18.5608 21.3633 19.5451 20.0266L27.4466 22.6604C27.8058 22.78 28.1942 22.78 28.5534 22.6604L36.4549 20.0266C37.7848 21.8289 38.5017 24.0102 38.5 26.25V26.25ZM36.4661 16.3335C36.4617 16.335 36.4573 16.3361 36.4529 16.3378L28 19.1553L19.5468 16.3378C19.5425 16.3361 19.5381 16.3348 19.5337 16.3335L12.5342 14L28 8.84477L43.4661 14L36.4661 16.3335Z" fill="#4223FF"/>
</svg>
