<svg width="20" height="15" viewBox="0 0 20 15" fill="none" xmlns="http://www.w3.org/2000/svg">
<path d="M19.9258 1.88888C19.1931 2.18242 18.4059 2.38075 17.5783 2.4704C18.4322 2.00851 19.071 1.28156 19.3756 0.425175C18.5734 0.85595 17.6954 1.15917 16.7798 1.32165C16.1641 0.72733 15.3485 0.333407 14.4598 0.201036C13.5711 0.0686662 12.6588 0.205255 11.8648 0.589597C11.0707 0.973939 10.4392 1.58453 10.0683 2.32657C9.69747 3.06862 9.60797 3.90059 9.81372 4.69334C8.18821 4.61955 6.59803 4.2376 5.14637 3.57227C3.69471 2.90694 2.41402 1.97311 1.38742 0.831365C1.03639 1.37877 0.834557 2.01344 0.834557 2.68936C0.834165 3.29785 0.999917 3.89702 1.31711 4.4337C1.6343 4.97039 2.09312 5.428 2.65286 5.76593C2.00371 5.74726 1.36888 5.58869 0.80121 5.30341V5.35101C0.801144 6.20444 1.12769 7.0316 1.72544 7.69215C2.32319 8.3527 3.15532 8.80595 4.08064 8.97498C3.47845 9.12232 2.84709 9.14402 2.23426 9.03845C2.49533 9.77278 3.00387 10.4149 3.68869 10.875C4.37352 11.335 5.20033 11.59 6.05339 11.6041C4.60527 12.6318 2.81686 13.1893 0.975844 13.1868C0.649727 13.1869 0.323886 13.1697 0 13.1353C1.86874 14.2215 4.04408 14.7979 6.26576 14.7957C13.7864 14.7957 17.8978 9.16459 17.8978 4.2808C17.8978 4.12213 17.8934 3.96188 17.8855 3.80321C18.6852 3.28038 19.3755 2.63295 19.9241 1.89126L19.9258 1.88888Z" fill="#0D053E"/>
</svg>
