<svg width="28" height="31" viewBox="0 0 28 31" fill="none" xmlns="http://www.w3.org/2000/svg">
<g clip-path="url(#clip0_9_670)">
<path fill-rule="evenodd" clip-rule="evenodd" d="M27.307 7.66969C27.4938 6.96563 27.307 6.44727 26.4127 6.44727H23.4595C22.708 6.44727 22.3615 6.89471 22.1737 7.38858C22.1737 7.38858 20.6718 11.5097 18.5444 14.1867C17.8559 14.9629 17.5432 15.2092 17.1674 15.2092C16.9795 15.2092 16.6972 14.963 16.6972 14.2576V7.66969C16.6972 6.82379 16.4902 6.44727 15.8647 6.44727H11.2207C10.7515 6.44727 10.4692 6.83927 10.4692 7.21192C10.4692 8.01269 11.5334 8.19837 11.6425 10.4524V15.3498C11.6425 16.4239 11.4704 16.6186 11.0947 16.6186C10.0934 16.6186 7.65778 12.4781 6.21216 7.74061C5.93203 6.81863 5.64853 6.44727 4.89366 6.44727H1.93828C1.09453 6.44727 0.925781 6.89471 0.925781 7.38858C0.925781 8.268 1.92703 12.6367 5.58891 18.4149C8.03016 22.3607 11.467 24.4999 14.5979 24.4999C16.4755 24.4999 16.7073 24.0254 16.7073 23.2066V20.224C16.7073 19.2737 16.885 19.0841 17.4802 19.0841C17.9189 19.0841 18.6693 19.3317 20.422 21.2337C22.4245 23.4889 22.7542 24.4999 23.8814 24.4999H26.8345C27.6783 24.4999 28.1013 24.0254 27.8583 23.0866C27.5905 22.1531 26.6343 20.7978 25.3664 19.1898C24.6779 18.2743 23.6452 17.2879 23.3313 16.794C22.8937 16.1609 23.0185 15.8785 23.3313 15.315C23.3313 15.315 26.9313 9.60777 27.3059 7.66969H27.307Z" fill="#0D053E"/>
</g>
<defs>
<clipPath id="clip0_9_670">
<rect width="27" height="30.9474" fill="white" transform="translate(0.925781)"/>
</clipPath>
</defs>
</svg>
