<svg width="29" height="31" viewBox="0 0 29 31" fill="none" xmlns="http://www.w3.org/2000/svg">
<g clip-path="url(#clip0_9_671)">
<path d="M28.3424 8.39072C28.1839 7.76562 27.8751 7.19969 27.4488 6.75308C27.0104 6.29275 26.4732 5.96346 25.8878 5.7963C23.6968 5.15801 14.9188 5.15801 14.9188 5.15801C11.2593 5.11199 7.60077 5.31439 3.96377 5.76406C3.37832 5.94357 2.84209 6.28022 2.40277 6.74406C1.9711 7.20311 1.65844 7.76919 1.4951 8.38943C1.10274 10.7256 0.91211 13.0977 0.925769 15.4738C0.911769 17.8477 1.10194 20.2191 1.4951 22.5582C1.65494 23.1758 1.96644 23.7393 2.39927 24.1945C2.8321 24.6497 3.3711 24.9785 3.96377 25.1526C6.18394 25.7896 14.9188 25.7896 14.9188 25.7896C18.5829 25.8357 22.2461 25.6333 25.8878 25.1835C26.4732 25.0164 27.0104 24.6871 27.4488 24.2267C27.8804 23.7716 28.1873 23.2055 28.3413 22.5891C28.7439 20.2538 28.9396 17.8807 28.9258 15.5035C28.9561 13.1161 28.7605 10.7318 28.3424 8.38943V8.39072ZM12.1281 19.889V11.0599L19.4314 15.4751L12.1281 19.889Z" fill="#0D053E"/>
</g>
<defs>
<clipPath id="clip0_9_671">
<rect width="28" height="30.9474" fill="white" transform="translate(0.925781)"/>
</clipPath>
</defs>
</svg>
